<mxfile host="app.diagrams.net" modified="2023-11-01T18:13:54.637Z" agent="Mozilla/5.0 (Windows NT 10.0; Win64; x64) AppleWebKit/537.36 (KHTML, like Gecko) Chrome/118.0.0.0 Safari/537.36" etag="gChghPXnISkLi2Z5LqEx" version="22.0.8" type="google">
  <diagram name="Page-1" id="fT5coUwwU1LfDwDc0ofR">
    <mxGraphModel grid="1" page="1" gridSize="10" guides="1" tooltips="1" connect="1" arrows="1" fold="1" pageScale="1" pageWidth="1169" pageHeight="827" math="0" shadow="0">
      <root>
        <mxCell id="0" />
        <mxCell id="1" parent="0" />
        <mxCell id="LEjaGU5CxLeT_bd0biD4-62" value="" style="rounded=0;whiteSpace=wrap;html=1;strokeWidth=3;" vertex="1" parent="1">
          <mxGeometry x="-1060" y="820" width="1170" height="560" as="geometry" />
        </mxCell>
        <mxCell id="l8UH4SkAAYBHvG_o-2I1-24" value="" style="rounded=1;whiteSpace=wrap;html=1;" vertex="1" parent="1">
          <mxGeometry x="-280" y="205" width="580" height="485" as="geometry" />
        </mxCell>
        <mxCell id="l8UH4SkAAYBHvG_o-2I1-28" value="" style="rounded=1;whiteSpace=wrap;html=1;dashed=1;dashPattern=8 8;" vertex="1" parent="1">
          <mxGeometry x="-240" y="530" width="510" height="130" as="geometry" />
        </mxCell>
        <mxCell id="l8UH4SkAAYBHvG_o-2I1-27" value="" style="rounded=1;whiteSpace=wrap;html=1;dashed=1;dashPattern=8 8;" vertex="1" parent="1">
          <mxGeometry x="-245" y="250" width="515" height="250" as="geometry" />
        </mxCell>
        <mxCell id="l8UH4SkAAYBHvG_o-2I1-4" value="" style="edgeStyle=orthogonalEdgeStyle;rounded=0;orthogonalLoop=1;jettySize=auto;html=1;" edge="1" parent="1" source="l8UH4SkAAYBHvG_o-2I1-2" target="l8UH4SkAAYBHvG_o-2I1-3">
          <mxGeometry relative="1" as="geometry" />
        </mxCell>
        <mxCell id="l8UH4SkAAYBHvG_o-2I1-7" style="edgeStyle=orthogonalEdgeStyle;rounded=0;orthogonalLoop=1;jettySize=auto;html=1;exitX=1;exitY=0.5;exitDx=0;exitDy=0;entryX=0;entryY=0.5;entryDx=0;entryDy=0;" edge="1" parent="1" source="l8UH4SkAAYBHvG_o-2I1-2" target="l8UH4SkAAYBHvG_o-2I1-5">
          <mxGeometry relative="1" as="geometry" />
        </mxCell>
        <mxCell id="l8UH4SkAAYBHvG_o-2I1-8" style="edgeStyle=orthogonalEdgeStyle;rounded=0;orthogonalLoop=1;jettySize=auto;html=1;exitX=1;exitY=0.5;exitDx=0;exitDy=0;entryX=0;entryY=0.5;entryDx=0;entryDy=0;" edge="1" parent="1" source="l8UH4SkAAYBHvG_o-2I1-2" target="l8UH4SkAAYBHvG_o-2I1-6">
          <mxGeometry relative="1" as="geometry">
            <Array as="points">
              <mxPoint x="-870" y="420" />
              <mxPoint x="-870" y="500" />
            </Array>
          </mxGeometry>
        </mxCell>
        <mxCell id="l8UH4SkAAYBHvG_o-2I1-2" value="&lt;font style=&quot;font-size: 17px;&quot;&gt;Radiology Objects &lt;br&gt;in Context (ROCO) dataset&lt;/font&gt;" style="shape=parallelogram;perimeter=parallelogramPerimeter;whiteSpace=wrap;html=1;fixedSize=1;" vertex="1" parent="1">
          <mxGeometry x="-1160" y="360" width="240" height="120" as="geometry" />
        </mxCell>
        <mxCell id="l8UH4SkAAYBHvG_o-2I1-10" style="edgeStyle=orthogonalEdgeStyle;rounded=0;orthogonalLoop=1;jettySize=auto;html=1;exitX=1;exitY=0.5;exitDx=0;exitDy=0;" edge="1" parent="1" source="l8UH4SkAAYBHvG_o-2I1-3" target="l8UH4SkAAYBHvG_o-2I1-9">
          <mxGeometry relative="1" as="geometry" />
        </mxCell>
        <mxCell id="l8UH4SkAAYBHvG_o-2I1-3" value="&lt;font style=&quot;font-size: 17px;&quot;&gt;Training dataset&lt;br&gt;(2500)&lt;br&gt;&lt;/font&gt;" style="shape=parallelogram;perimeter=parallelogramPerimeter;whiteSpace=wrap;html=1;fixedSize=1;" vertex="1" parent="1">
          <mxGeometry x="-820" y="310" width="120" height="60" as="geometry" />
        </mxCell>
        <mxCell id="l8UH4SkAAYBHvG_o-2I1-13" style="edgeStyle=orthogonalEdgeStyle;rounded=0;orthogonalLoop=1;jettySize=auto;html=1;exitX=1;exitY=0.5;exitDx=0;exitDy=0;entryX=0;entryY=0.5;entryDx=0;entryDy=0;" edge="1" parent="1" source="l8UH4SkAAYBHvG_o-2I1-5" target="l8UH4SkAAYBHvG_o-2I1-9">
          <mxGeometry relative="1" as="geometry" />
        </mxCell>
        <mxCell id="l8UH4SkAAYBHvG_o-2I1-5" value="&lt;font style=&quot;font-size: 17px;&quot;&gt;Validation dataset&lt;br&gt;(500)&lt;br&gt;&lt;/font&gt;" style="shape=parallelogram;perimeter=parallelogramPerimeter;whiteSpace=wrap;html=1;fixedSize=1;" vertex="1" parent="1">
          <mxGeometry x="-820" y="390" width="120" height="60" as="geometry" />
        </mxCell>
        <mxCell id="l8UH4SkAAYBHvG_o-2I1-74" style="edgeStyle=orthogonalEdgeStyle;rounded=0;orthogonalLoop=1;jettySize=auto;html=1;exitX=0.5;exitY=1;exitDx=0;exitDy=0;entryX=0;entryY=0.5;entryDx=0;entryDy=0;" edge="1" parent="1" source="l8UH4SkAAYBHvG_o-2I1-6" target="l8UH4SkAAYBHvG_o-2I1-72">
          <mxGeometry relative="1" as="geometry" />
        </mxCell>
        <mxCell id="l8UH4SkAAYBHvG_o-2I1-6" value="&lt;font style=&quot;font-size: 17px;&quot;&gt;Testing&lt;/font&gt;" style="shape=parallelogram;perimeter=parallelogramPerimeter;whiteSpace=wrap;html=1;fixedSize=1;" vertex="1" parent="1">
          <mxGeometry x="-820" y="470" width="120" height="60" as="geometry" />
        </mxCell>
        <mxCell id="l8UH4SkAAYBHvG_o-2I1-22" value="" style="group" connectable="0" vertex="1" parent="1">
          <mxGeometry x="-660" y="280" width="275.5" height="190" as="geometry" />
        </mxCell>
        <mxCell id="l8UH4SkAAYBHvG_o-2I1-9" value="" style="rounded=1;whiteSpace=wrap;html=1;" vertex="1" parent="l8UH4SkAAYBHvG_o-2I1-22">
          <mxGeometry width="275.5" height="190" as="geometry" />
        </mxCell>
        <mxCell id="l8UH4SkAAYBHvG_o-2I1-21" value="" style="group" connectable="0" vertex="1" parent="l8UH4SkAAYBHvG_o-2I1-22">
          <mxGeometry x="17.75" y="6" width="240" height="180" as="geometry" />
        </mxCell>
        <mxCell id="l8UH4SkAAYBHvG_o-2I1-19" value="" style="group" connectable="0" vertex="1" parent="l8UH4SkAAYBHvG_o-2I1-21">
          <mxGeometry y="20" width="240" height="160" as="geometry" />
        </mxCell>
        <mxCell id="l8UH4SkAAYBHvG_o-2I1-17" value="Image processing&lt;br style=&quot;border-color: var(--border-color);&quot;&gt;Resize, Normalization, Augmentation" style="rounded=1;whiteSpace=wrap;html=1;" vertex="1" parent="l8UH4SkAAYBHvG_o-2I1-19">
          <mxGeometry width="240" height="60" as="geometry" />
        </mxCell>
        <mxCell id="l8UH4SkAAYBHvG_o-2I1-18" value="Text processing&lt;br style=&quot;border-color: var(--border-color);&quot;&gt;stop word, punctuation, special character, single word, extra space removal, tokenization, lemmatization etc." style="rounded=1;whiteSpace=wrap;html=1;" vertex="1" parent="l8UH4SkAAYBHvG_o-2I1-19">
          <mxGeometry y="60" width="240" height="100" as="geometry" />
        </mxCell>
        <mxCell id="l8UH4SkAAYBHvG_o-2I1-20" value="&lt;b&gt;Data Processing&lt;/b&gt;" style="rounded=1;whiteSpace=wrap;html=1;" vertex="1" parent="l8UH4SkAAYBHvG_o-2I1-21">
          <mxGeometry width="240" height="20" as="geometry" />
        </mxCell>
        <mxCell id="l8UH4SkAAYBHvG_o-2I1-87" style="edgeStyle=orthogonalEdgeStyle;rounded=0;orthogonalLoop=1;jettySize=auto;html=1;exitX=0;exitY=0.5;exitDx=0;exitDy=0;entryX=1;entryY=0.5;entryDx=0;entryDy=0;" edge="1" parent="1" source="l8UH4SkAAYBHvG_o-2I1-39" target="l8UH4SkAAYBHvG_o-2I1-59">
          <mxGeometry relative="1" as="geometry" />
        </mxCell>
        <mxCell id="l8UH4SkAAYBHvG_o-2I1-39" value="Sequence Generation&lt;br&gt;&amp;nbsp;(LSTM)" style="whiteSpace=wrap;html=1;rounded=1;" vertex="1" parent="1">
          <mxGeometry x="22.5" y="571.25" width="200" height="58.75" as="geometry" />
        </mxCell>
        <mxCell id="l8UH4SkAAYBHvG_o-2I1-29" value="&lt;b&gt;Model Architecture&lt;/b&gt;" style="rounded=1;whiteSpace=wrap;html=1;" vertex="1" parent="1">
          <mxGeometry x="-110" y="220" width="240" height="20" as="geometry" />
        </mxCell>
        <mxCell id="l8UH4SkAAYBHvG_o-2I1-96" style="edgeStyle=orthogonalEdgeStyle;rounded=0;orthogonalLoop=1;jettySize=auto;html=1;exitX=0;exitY=0.5;exitDx=0;exitDy=0;entryX=0.5;entryY=1;entryDx=0;entryDy=0;" edge="1" parent="1" source="l8UH4SkAAYBHvG_o-2I1-59" target="l8UH4SkAAYBHvG_o-2I1-76">
          <mxGeometry relative="1" as="geometry" />
        </mxCell>
        <mxCell id="l8UH4SkAAYBHvG_o-2I1-97" style="edgeStyle=orthogonalEdgeStyle;rounded=0;orthogonalLoop=1;jettySize=auto;html=1;exitX=0;exitY=0.5;exitDx=0;exitDy=0;entryX=1;entryY=0.5;entryDx=0;entryDy=0;" edge="1" parent="1" source="l8UH4SkAAYBHvG_o-2I1-59" target="l8UH4SkAAYBHvG_o-2I1-72">
          <mxGeometry relative="1" as="geometry" />
        </mxCell>
        <mxCell id="l8UH4SkAAYBHvG_o-2I1-59" value="Predicted Caption" style="whiteSpace=wrap;html=1;rounded=1;" vertex="1" parent="1">
          <mxGeometry x="-197.5" y="571.25" width="120" height="60" as="geometry" />
        </mxCell>
        <mxCell id="l8UH4SkAAYBHvG_o-2I1-64" value="Train set" style="text;html=1;align=center;verticalAlign=middle;resizable=0;points=[];autosize=1;strokeColor=none;fillColor=none;" vertex="1" parent="1">
          <mxGeometry x="-300" y="140" width="90" height="30" as="geometry" />
        </mxCell>
        <mxCell id="l8UH4SkAAYBHvG_o-2I1-65" value="Validation set" style="text;html=1;align=center;verticalAlign=middle;resizable=0;points=[];autosize=1;strokeColor=none;fillColor=none;" vertex="1" parent="1">
          <mxGeometry x="-450" y="500" width="120" height="30" as="geometry" />
        </mxCell>
        <mxCell id="l8UH4SkAAYBHvG_o-2I1-71" value="Tuning" style="text;html=1;align=center;verticalAlign=middle;resizable=0;points=[];autosize=1;strokeColor=none;fillColor=none;" vertex="1" parent="1">
          <mxGeometry x="-410" y="520" width="70" height="30" as="geometry" />
        </mxCell>
        <mxCell id="l8UH4SkAAYBHvG_o-2I1-72" value="Model evaluation" style="whiteSpace=wrap;html=1;rounded=1;" vertex="1" parent="1">
          <mxGeometry x="-570" y="730" width="120" height="60" as="geometry" />
        </mxCell>
        <mxCell id="l8UH4SkAAYBHvG_o-2I1-93" style="edgeStyle=orthogonalEdgeStyle;rounded=0;orthogonalLoop=1;jettySize=auto;html=1;exitX=0.5;exitY=0;exitDx=0;exitDy=0;entryX=0.5;entryY=0;entryDx=0;entryDy=0;" edge="1" parent="1" source="l8UH4SkAAYBHvG_o-2I1-76" target="l8UH4SkAAYBHvG_o-2I1-24">
          <mxGeometry relative="1" as="geometry" />
        </mxCell>
        <mxCell id="l8UH4SkAAYBHvG_o-2I1-76" value="" style="shape=image;html=1;verticalAlign=top;verticalLabelPosition=bottom;labelBackgroundColor=#ffffff;imageAspect=0;aspect=fixed;image=https://cdn1.iconfinder.com/data/icons/iconoir-vol-3/24/refresh-circular-128.png" vertex="1" parent="1">
          <mxGeometry x="-350" y="435" width="35" height="35" as="geometry" />
        </mxCell>
        <mxCell id="l8UH4SkAAYBHvG_o-2I1-78" value="&lt;b&gt;Encoder&lt;/b&gt;" style="rounded=1;whiteSpace=wrap;html=1;" vertex="1" parent="1">
          <mxGeometry x="-107.5" y="260" width="240" height="20" as="geometry" />
        </mxCell>
        <mxCell id="l8UH4SkAAYBHvG_o-2I1-80" value="" style="group" connectable="0" vertex="1" parent="1">
          <mxGeometry x="-197.5" y="306" width="420" height="80" as="geometry" />
        </mxCell>
        <mxCell id="l8UH4SkAAYBHvG_o-2I1-37" value="Image Encoding (CNN)" style="whiteSpace=wrap;html=1;rounded=1;" vertex="1" parent="l8UH4SkAAYBHvG_o-2I1-80">
          <mxGeometry y="20" width="120" height="40" as="geometry" />
        </mxCell>
        <mxCell id="l8UH4SkAAYBHvG_o-2I1-46" value="Image Feature Extraction (densenet121,&amp;nbsp; resnet50)" style="whiteSpace=wrap;html=1;rounded=1;" vertex="1" parent="l8UH4SkAAYBHvG_o-2I1-80">
          <mxGeometry x="150" width="120" height="80" as="geometry" />
        </mxCell>
        <mxCell id="l8UH4SkAAYBHvG_o-2I1-47" value="" style="edgeStyle=orthogonalEdgeStyle;rounded=0;orthogonalLoop=1;jettySize=auto;html=1;" edge="1" parent="l8UH4SkAAYBHvG_o-2I1-80" source="l8UH4SkAAYBHvG_o-2I1-37" target="l8UH4SkAAYBHvG_o-2I1-46">
          <mxGeometry relative="1" as="geometry" />
        </mxCell>
        <mxCell id="l8UH4SkAAYBHvG_o-2I1-48" value="Image Feature Vector" style="whiteSpace=wrap;html=1;rounded=1;" vertex="1" parent="l8UH4SkAAYBHvG_o-2I1-80">
          <mxGeometry x="300" y="10" width="120" height="60" as="geometry" />
        </mxCell>
        <mxCell id="l8UH4SkAAYBHvG_o-2I1-49" value="" style="edgeStyle=orthogonalEdgeStyle;rounded=0;orthogonalLoop=1;jettySize=auto;html=1;" edge="1" parent="l8UH4SkAAYBHvG_o-2I1-80" source="l8UH4SkAAYBHvG_o-2I1-46" target="l8UH4SkAAYBHvG_o-2I1-48">
          <mxGeometry relative="1" as="geometry" />
        </mxCell>
        <mxCell id="l8UH4SkAAYBHvG_o-2I1-81" value="" style="group" connectable="0" vertex="1" parent="1">
          <mxGeometry x="-197.5" y="400" width="420" height="80" as="geometry" />
        </mxCell>
        <mxCell id="l8UH4SkAAYBHvG_o-2I1-41" value="Text Embedding" style="whiteSpace=wrap;html=1;rounded=1;" vertex="1" parent="l8UH4SkAAYBHvG_o-2I1-81">
          <mxGeometry y="20" width="120" height="40" as="geometry" />
        </mxCell>
        <mxCell id="l8UH4SkAAYBHvG_o-2I1-54" value="Feature Extraction&lt;br&gt;(word2vec ,&amp;nbsp; glove)" style="whiteSpace=wrap;html=1;rounded=1;" vertex="1" parent="l8UH4SkAAYBHvG_o-2I1-81">
          <mxGeometry x="150" width="120" height="80" as="geometry" />
        </mxCell>
        <mxCell id="l8UH4SkAAYBHvG_o-2I1-55" value="" style="edgeStyle=orthogonalEdgeStyle;rounded=0;orthogonalLoop=1;jettySize=auto;html=1;" edge="1" parent="l8UH4SkAAYBHvG_o-2I1-81" source="l8UH4SkAAYBHvG_o-2I1-41" target="l8UH4SkAAYBHvG_o-2I1-54">
          <mxGeometry relative="1" as="geometry" />
        </mxCell>
        <mxCell id="l8UH4SkAAYBHvG_o-2I1-56" value="Text Embedding Vector" style="whiteSpace=wrap;html=1;rounded=1;" vertex="1" parent="l8UH4SkAAYBHvG_o-2I1-81">
          <mxGeometry x="300" y="10" width="120" height="60" as="geometry" />
        </mxCell>
        <mxCell id="l8UH4SkAAYBHvG_o-2I1-57" value="" style="edgeStyle=orthogonalEdgeStyle;rounded=0;orthogonalLoop=1;jettySize=auto;html=1;" edge="1" parent="l8UH4SkAAYBHvG_o-2I1-81" source="l8UH4SkAAYBHvG_o-2I1-54" target="l8UH4SkAAYBHvG_o-2I1-56">
          <mxGeometry relative="1" as="geometry" />
        </mxCell>
        <mxCell id="l8UH4SkAAYBHvG_o-2I1-83" value="&lt;b&gt;Decoder&lt;/b&gt;" style="rounded=1;whiteSpace=wrap;html=1;" vertex="1" parent="1">
          <mxGeometry x="-107.5" y="540" width="240" height="20" as="geometry" />
        </mxCell>
        <mxCell id="l8UH4SkAAYBHvG_o-2I1-84" style="edgeStyle=orthogonalEdgeStyle;rounded=0;orthogonalLoop=1;jettySize=auto;html=1;exitX=1;exitY=0.5;exitDx=0;exitDy=0;entryX=1;entryY=0.5;entryDx=0;entryDy=0;" edge="1" parent="1" source="l8UH4SkAAYBHvG_o-2I1-48" target="l8UH4SkAAYBHvG_o-2I1-39">
          <mxGeometry relative="1" as="geometry" />
        </mxCell>
        <mxCell id="l8UH4SkAAYBHvG_o-2I1-86" style="edgeStyle=orthogonalEdgeStyle;rounded=0;orthogonalLoop=1;jettySize=auto;html=1;exitX=1;exitY=0.5;exitDx=0;exitDy=0;entryX=1;entryY=0.5;entryDx=0;entryDy=0;" edge="1" parent="1" source="l8UH4SkAAYBHvG_o-2I1-56" target="l8UH4SkAAYBHvG_o-2I1-39">
          <mxGeometry relative="1" as="geometry" />
        </mxCell>
        <mxCell id="l8UH4SkAAYBHvG_o-2I1-88" style="edgeStyle=orthogonalEdgeStyle;rounded=0;orthogonalLoop=1;jettySize=auto;html=1;exitX=1;exitY=0.5;exitDx=0;exitDy=0;entryX=0.5;entryY=0;entryDx=0;entryDy=0;" edge="1" parent="1" source="l8UH4SkAAYBHvG_o-2I1-9" target="l8UH4SkAAYBHvG_o-2I1-24">
          <mxGeometry relative="1" as="geometry" />
        </mxCell>
        <mxCell id="LEjaGU5CxLeT_bd0biD4-17" style="edgeStyle=orthogonalEdgeStyle;rounded=0;orthogonalLoop=1;jettySize=auto;html=1;entryX=0.5;entryY=1;entryDx=0;entryDy=0;strokeWidth=3;" edge="1" parent="1" source="LEjaGU5CxLeT_bd0biD4-2" target="LEjaGU5CxLeT_bd0biD4-3">
          <mxGeometry relative="1" as="geometry" />
        </mxCell>
        <mxCell id="LEjaGU5CxLeT_bd0biD4-2" value="Input Image&lt;br&gt;" style="whiteSpace=wrap;html=1;aspect=fixed;strokeWidth=3;" vertex="1" parent="1">
          <mxGeometry x="-1000" y="1010" width="160" height="160" as="geometry" />
        </mxCell>
        <mxCell id="LEjaGU5CxLeT_bd0biD4-18" style="edgeStyle=orthogonalEdgeStyle;rounded=0;orthogonalLoop=1;jettySize=auto;html=1;exitX=0.5;exitY=0;exitDx=0;exitDy=0;entryX=0.5;entryY=1;entryDx=0;entryDy=0;strokeWidth=3;" edge="1" parent="1" source="LEjaGU5CxLeT_bd0biD4-3" target="LEjaGU5CxLeT_bd0biD4-4">
          <mxGeometry relative="1" as="geometry" />
        </mxCell>
        <mxCell id="LEjaGU5CxLeT_bd0biD4-3" value="" style="shape=trapezoid;perimeter=trapezoidPerimeter;whiteSpace=wrap;html=1;fixedSize=1;rotation=90;strokeWidth=3;" vertex="1" parent="1">
          <mxGeometry x="-774.99" y="1017.97" width="162.81" height="145" as="geometry" />
        </mxCell>
        <mxCell id="LEjaGU5CxLeT_bd0biD4-24" style="edgeStyle=orthogonalEdgeStyle;rounded=0;orthogonalLoop=1;jettySize=auto;html=1;exitX=0.5;exitY=0;exitDx=0;exitDy=0;entryX=0.5;entryY=0;entryDx=0;entryDy=0;strokeWidth=3;" edge="1" parent="1" source="LEjaGU5CxLeT_bd0biD4-4" target="LEjaGU5CxLeT_bd0biD4-5">
          <mxGeometry relative="1" as="geometry" />
        </mxCell>
        <mxCell id="LEjaGU5CxLeT_bd0biD4-4" value="" style="rounded=0;whiteSpace=wrap;html=1;rotation=90;strokeWidth=3;" vertex="1" parent="1">
          <mxGeometry x="-619.77" y="1080.23" width="120" height="20.47" as="geometry" />
        </mxCell>
        <mxCell id="LEjaGU5CxLeT_bd0biD4-26" style="edgeStyle=orthogonalEdgeStyle;rounded=0;orthogonalLoop=1;jettySize=auto;html=1;exitX=0.5;exitY=1;exitDx=0;exitDy=0;entryX=0;entryY=0.5;entryDx=0;entryDy=0;strokeWidth=3;" edge="1" parent="1" source="LEjaGU5CxLeT_bd0biD4-5" target="LEjaGU5CxLeT_bd0biD4-6">
          <mxGeometry relative="1" as="geometry" />
        </mxCell>
        <mxCell id="LEjaGU5CxLeT_bd0biD4-5" value="Linear" style="rounded=0;whiteSpace=wrap;html=1;rotation=-90;strokeWidth=3;" vertex="1" parent="1">
          <mxGeometry x="-532.29" y="1065.1" width="94.86" height="50.74" as="geometry" />
        </mxCell>
        <mxCell id="LEjaGU5CxLeT_bd0biD4-36" style="edgeStyle=orthogonalEdgeStyle;rounded=0;orthogonalLoop=1;jettySize=auto;html=1;exitX=0.5;exitY=1;exitDx=0;exitDy=0;strokeWidth=3;" edge="1" parent="1" source="LEjaGU5CxLeT_bd0biD4-6" target="LEjaGU5CxLeT_bd0biD4-34">
          <mxGeometry relative="1" as="geometry" />
        </mxCell>
        <mxCell id="LEjaGU5CxLeT_bd0biD4-38" style="edgeStyle=orthogonalEdgeStyle;rounded=0;orthogonalLoop=1;jettySize=auto;html=1;exitX=1;exitY=0.5;exitDx=0;exitDy=0;entryX=0.5;entryY=1;entryDx=0;entryDy=0;strokeWidth=3;" edge="1" parent="1" source="LEjaGU5CxLeT_bd0biD4-6" target="LEjaGU5CxLeT_bd0biD4-10">
          <mxGeometry relative="1" as="geometry" />
        </mxCell>
        <mxCell id="LEjaGU5CxLeT_bd0biD4-6" value="LSTM" style="rounded=0;whiteSpace=wrap;html=1;rotation=-90;strokeWidth=3;" vertex="1" parent="1">
          <mxGeometry x="-452.86" y="1065" width="154.86" height="50.74" as="geometry" />
        </mxCell>
        <mxCell id="LEjaGU5CxLeT_bd0biD4-41" style="edgeStyle=orthogonalEdgeStyle;rounded=0;orthogonalLoop=1;jettySize=auto;html=1;exitX=0;exitY=0.5;exitDx=0;exitDy=0;entryX=0.5;entryY=1;entryDx=0;entryDy=0;strokeWidth=3;" edge="1" parent="1" target="LEjaGU5CxLeT_bd0biD4-13">
          <mxGeometry relative="1" as="geometry">
            <mxPoint x="17.429999999999836" y="1012.5699999999999" as="sourcePoint" />
          </mxGeometry>
        </mxCell>
        <mxCell id="LEjaGU5CxLeT_bd0biD4-42" style="edgeStyle=orthogonalEdgeStyle;rounded=0;orthogonalLoop=1;jettySize=auto;html=1;exitX=0.5;exitY=0;exitDx=0;exitDy=0;strokeWidth=3;" edge="1" parent="1" source="LEjaGU5CxLeT_bd0biD4-10">
          <mxGeometry relative="1" as="geometry">
            <mxPoint x="-375" y="880" as="targetPoint" />
          </mxGeometry>
        </mxCell>
        <mxCell id="LEjaGU5CxLeT_bd0biD4-10" value="Softmax" style="rounded=0;whiteSpace=wrap;html=1;strokeWidth=3;" vertex="1" parent="1">
          <mxGeometry x="-420" y="920" width="90" height="40" as="geometry" />
        </mxCell>
        <mxCell id="LEjaGU5CxLeT_bd0biD4-11" value="Softmax" style="rounded=0;whiteSpace=wrap;html=1;strokeWidth=3;" vertex="1" parent="1">
          <mxGeometry x="-320" y="920" width="90" height="40" as="geometry" />
        </mxCell>
        <mxCell id="LEjaGU5CxLeT_bd0biD4-12" value="Softmax" style="rounded=0;whiteSpace=wrap;html=1;strokeWidth=3;" vertex="1" parent="1">
          <mxGeometry x="-217.57" y="920" width="90" height="40" as="geometry" />
        </mxCell>
        <mxCell id="LEjaGU5CxLeT_bd0biD4-43" style="edgeStyle=orthogonalEdgeStyle;rounded=0;orthogonalLoop=1;jettySize=auto;html=1;exitX=0.5;exitY=0;exitDx=0;exitDy=0;strokeWidth=3;" edge="1" parent="1" source="LEjaGU5CxLeT_bd0biD4-13">
          <mxGeometry relative="1" as="geometry">
            <mxPoint x="17" y="880" as="targetPoint" />
          </mxGeometry>
        </mxCell>
        <mxCell id="LEjaGU5CxLeT_bd0biD4-13" value="Softmax" style="rounded=0;whiteSpace=wrap;html=1;strokeWidth=3;" vertex="1" parent="1">
          <mxGeometry x="-27.569999999999993" y="920" width="90" height="40" as="geometry" />
        </mxCell>
        <mxCell id="LEjaGU5CxLeT_bd0biD4-45" style="edgeStyle=orthogonalEdgeStyle;rounded=0;orthogonalLoop=1;jettySize=auto;html=1;exitX=0.5;exitY=0;exitDx=0;exitDy=0;entryX=0;entryY=0.5;entryDx=0;entryDy=0;strokeWidth=3;" edge="1" parent="1" source="LEjaGU5CxLeT_bd0biD4-14" target="LEjaGU5CxLeT_bd0biD4-34">
          <mxGeometry relative="1" as="geometry" />
        </mxCell>
        <mxCell id="LEjaGU5CxLeT_bd0biD4-14" value="W&lt;sub&gt;emb&lt;/sub&gt;" style="rounded=0;whiteSpace=wrap;html=1;strokeWidth=3;" vertex="1" parent="1">
          <mxGeometry x="-313" y="1221" width="75" height="39" as="geometry" />
        </mxCell>
        <mxCell id="LEjaGU5CxLeT_bd0biD4-46" style="edgeStyle=orthogonalEdgeStyle;rounded=0;orthogonalLoop=1;jettySize=auto;html=1;exitX=0.5;exitY=0;exitDx=0;exitDy=0;entryX=0;entryY=0.5;entryDx=0;entryDy=0;strokeWidth=3;" edge="1" parent="1" source="LEjaGU5CxLeT_bd0biD4-15" target="LEjaGU5CxLeT_bd0biD4-35">
          <mxGeometry relative="1" as="geometry" />
        </mxCell>
        <mxCell id="LEjaGU5CxLeT_bd0biD4-15" value="W&lt;sub style=&quot;--tw-border-spacing-x: 0; --tw-border-spacing-y: 0; --tw-translate-x: 0; --tw-translate-y: 0; --tw-rotate: 0; --tw-skew-x: 0; --tw-skew-y: 0; --tw-scale-x: 1; --tw-scale-y: 1; --tw-pan-x: ; --tw-pan-y: ; --tw-pinch-zoom: ; --tw-scroll-snap-strictness: proximity; --tw-gradient-from-position: ; --tw-gradient-via-position: ; --tw-gradient-to-position: ; --tw-ordinal: ; --tw-slashed-zero: ; --tw-numeric-figure: ; --tw-numeric-spacing: ; --tw-numeric-fraction: ; --tw-ring-inset: ; --tw-ring-offset-width: 0px; --tw-ring-offset-color: #fff; --tw-ring-color: rgb(59 130 246 / 0.5); --tw-ring-offset-shadow: 0 0 #0000; --tw-ring-shadow: 0 0 #0000; --tw-shadow: 0 0 #0000; --tw-shadow-colored: 0 0 #0000; --tw-blur: ; --tw-brightness: ; --tw-contrast: ; --tw-grayscale: ; --tw-hue-rotate: ; --tw-invert: ; --tw-saturate: ; --tw-sepia: ; --tw-drop-shadow: ; --tw-backdrop-blur: ; --tw-backdrop-brightness: ; --tw-backdrop-contrast: ; --tw-backdrop-grayscale: ; --tw-backdrop-hue-rotate: ; --tw-backdrop-invert: ; --tw-backdrop-opacity: ; --tw-backdrop-saturate: ; --tw-backdrop-sepia: ; border-color: var(--border-color);&quot;&gt;emb&lt;/sub&gt;" style="rounded=0;whiteSpace=wrap;html=1;strokeWidth=3;" vertex="1" parent="1">
          <mxGeometry x="-210.07" y="1221" width="75" height="39" as="geometry" />
        </mxCell>
        <mxCell id="LEjaGU5CxLeT_bd0biD4-47" style="edgeStyle=orthogonalEdgeStyle;rounded=0;orthogonalLoop=1;jettySize=auto;html=1;exitX=0.5;exitY=0;exitDx=0;exitDy=0;entryX=1;entryY=0.5;entryDx=0;entryDy=0;strokeWidth=3;" edge="1" parent="1" source="LEjaGU5CxLeT_bd0biD4-16">
          <mxGeometry relative="1" as="geometry">
            <mxPoint x="17.429999999999836" y="1167.43" as="targetPoint" />
          </mxGeometry>
        </mxCell>
        <mxCell id="LEjaGU5CxLeT_bd0biD4-16" value="W&lt;sub style=&quot;--tw-border-spacing-x: 0; --tw-border-spacing-y: 0; --tw-translate-x: 0; --tw-translate-y: 0; --tw-rotate: 0; --tw-skew-x: 0; --tw-skew-y: 0; --tw-scale-x: 1; --tw-scale-y: 1; --tw-pan-x: ; --tw-pan-y: ; --tw-pinch-zoom: ; --tw-scroll-snap-strictness: proximity; --tw-gradient-from-position: ; --tw-gradient-via-position: ; --tw-gradient-to-position: ; --tw-ordinal: ; --tw-slashed-zero: ; --tw-numeric-figure: ; --tw-numeric-spacing: ; --tw-numeric-fraction: ; --tw-ring-inset: ; --tw-ring-offset-width: 0px; --tw-ring-offset-color: #fff; --tw-ring-color: rgb(59 130 246 / 0.5); --tw-ring-offset-shadow: 0 0 #0000; --tw-ring-shadow: 0 0 #0000; --tw-shadow: 0 0 #0000; --tw-shadow-colored: 0 0 #0000; --tw-blur: ; --tw-brightness: ; --tw-contrast: ; --tw-grayscale: ; --tw-hue-rotate: ; --tw-invert: ; --tw-saturate: ; --tw-sepia: ; --tw-drop-shadow: ; --tw-backdrop-blur: ; --tw-backdrop-brightness: ; --tw-backdrop-contrast: ; --tw-backdrop-grayscale: ; --tw-backdrop-hue-rotate: ; --tw-backdrop-invert: ; --tw-backdrop-opacity: ; --tw-backdrop-saturate: ; --tw-backdrop-sepia: ; border-color: var(--border-color);&quot;&gt;emb&lt;/sub&gt;" style="rounded=0;whiteSpace=wrap;html=1;strokeWidth=3;" vertex="1" parent="1">
          <mxGeometry x="-20.069999999999993" y="1221" width="75" height="39" as="geometry" />
        </mxCell>
        <mxCell id="LEjaGU5CxLeT_bd0biD4-21" value="Pretrained CNN" style="text;html=1;strokeColor=none;fillColor=none;align=center;verticalAlign=middle;whiteSpace=wrap;rounded=0;strokeWidth=3;" vertex="1" parent="1">
          <mxGeometry x="-743.59" y="1075" width="100" height="30" as="geometry" />
        </mxCell>
        <mxCell id="LEjaGU5CxLeT_bd0biD4-22" value="Feature Vector" style="text;html=1;strokeColor=none;fillColor=none;align=center;verticalAlign=middle;whiteSpace=wrap;rounded=0;strokeWidth=3;" vertex="1" parent="1">
          <mxGeometry x="-609.77" y="1170" width="100" height="30" as="geometry" />
        </mxCell>
        <mxCell id="LEjaGU5CxLeT_bd0biD4-31" value="" style="endArrow=none;dashed=1;html=1;rounded=0;dashPattern=8 8;strokeWidth=3;" edge="1" parent="1">
          <mxGeometry width="50" height="50" relative="1" as="geometry">
            <mxPoint x="-93.14" y="1089.97" as="sourcePoint" />
            <mxPoint x="-53.14" y="1089.97" as="targetPoint" />
          </mxGeometry>
        </mxCell>
        <mxCell id="LEjaGU5CxLeT_bd0biD4-32" value="" style="endArrow=classic;html=1;rounded=0;strokeWidth=3;" edge="1" parent="1">
          <mxGeometry width="50" height="50" relative="1" as="geometry">
            <mxPoint x="-40" y="1089.97" as="sourcePoint" />
            <mxPoint x="-10" y="1089.97" as="targetPoint" />
          </mxGeometry>
        </mxCell>
        <mxCell id="LEjaGU5CxLeT_bd0biD4-33" value="" style="endArrow=none;html=1;rounded=0;strokeWidth=3;" edge="1" parent="1">
          <mxGeometry width="50" height="50" relative="1" as="geometry">
            <mxPoint x="-147.5" y="1089.5" as="sourcePoint" />
            <mxPoint x="-107.5" y="1089.5" as="targetPoint" />
          </mxGeometry>
        </mxCell>
        <mxCell id="LEjaGU5CxLeT_bd0biD4-37" style="edgeStyle=orthogonalEdgeStyle;rounded=0;orthogonalLoop=1;jettySize=auto;html=1;exitX=0.5;exitY=1;exitDx=0;exitDy=0;entryX=0.5;entryY=0;entryDx=0;entryDy=0;strokeWidth=3;" edge="1" parent="1" source="LEjaGU5CxLeT_bd0biD4-34" target="LEjaGU5CxLeT_bd0biD4-35">
          <mxGeometry relative="1" as="geometry" />
        </mxCell>
        <mxCell id="LEjaGU5CxLeT_bd0biD4-39" style="edgeStyle=orthogonalEdgeStyle;rounded=0;orthogonalLoop=1;jettySize=auto;html=1;exitX=1;exitY=0.5;exitDx=0;exitDy=0;entryX=0.5;entryY=1;entryDx=0;entryDy=0;strokeWidth=3;" edge="1" parent="1" source="LEjaGU5CxLeT_bd0biD4-34" target="LEjaGU5CxLeT_bd0biD4-11">
          <mxGeometry relative="1" as="geometry" />
        </mxCell>
        <mxCell id="LEjaGU5CxLeT_bd0biD4-34" value="LSTM" style="rounded=0;whiteSpace=wrap;html=1;rotation=-90;strokeWidth=3;" vertex="1" parent="1">
          <mxGeometry x="-352.36" y="1064.6299999999999" width="154.86" height="50.74" as="geometry" />
        </mxCell>
        <mxCell id="LEjaGU5CxLeT_bd0biD4-40" style="edgeStyle=orthogonalEdgeStyle;rounded=0;orthogonalLoop=1;jettySize=auto;html=1;exitX=1;exitY=0.5;exitDx=0;exitDy=0;entryX=0.5;entryY=1;entryDx=0;entryDy=0;strokeWidth=3;" edge="1" parent="1" source="LEjaGU5CxLeT_bd0biD4-35" target="LEjaGU5CxLeT_bd0biD4-12">
          <mxGeometry relative="1" as="geometry" />
        </mxCell>
        <mxCell id="LEjaGU5CxLeT_bd0biD4-35" value="LSTM" style="rounded=0;whiteSpace=wrap;html=1;rotation=-90;strokeWidth=3;" vertex="1" parent="1">
          <mxGeometry x="-250" y="1064.6299999999999" width="154.86" height="50.74" as="geometry" />
        </mxCell>
        <mxCell id="LEjaGU5CxLeT_bd0biD4-44" value="" style="endArrow=classic;html=1;rounded=0;strokeWidth=3;" edge="1" parent="1">
          <mxGeometry width="50" height="50" relative="1" as="geometry">
            <mxPoint x="-275.43" y="1310" as="sourcePoint" />
            <mxPoint x="-275.43" y="1270" as="targetPoint" />
          </mxGeometry>
        </mxCell>
        <mxCell id="LEjaGU5CxLeT_bd0biD4-48" value="LSTM" style="rounded=0;whiteSpace=wrap;html=1;rotation=-90;strokeWidth=3;" vertex="1" parent="1">
          <mxGeometry x="-60" y="1065.1" width="154.86" height="50.74" as="geometry" />
        </mxCell>
        <mxCell id="LEjaGU5CxLeT_bd0biD4-49" value="&amp;lt;START&amp;gt;" style="text;html=1;strokeColor=none;fillColor=none;align=center;verticalAlign=middle;whiteSpace=wrap;rounded=0;strokeWidth=3;" vertex="1" parent="1">
          <mxGeometry x="-408.34" y="850" width="66.67" height="20" as="geometry" />
        </mxCell>
        <mxCell id="LEjaGU5CxLeT_bd0biD4-50" value="&amp;lt;END&amp;gt;" style="text;html=1;strokeColor=none;fillColor=none;align=center;verticalAlign=middle;whiteSpace=wrap;rounded=0;strokeWidth=3;" vertex="1" parent="1">
          <mxGeometry x="-18.329999999999984" y="850" width="66.67" height="20" as="geometry" />
        </mxCell>
        <mxCell id="LEjaGU5CxLeT_bd0biD4-51" value="&amp;lt;START&amp;gt;" style="text;html=1;strokeColor=none;fillColor=none;align=center;verticalAlign=middle;whiteSpace=wrap;rounded=0;strokeWidth=3;" vertex="1" parent="1">
          <mxGeometry x="-308.83" y="1320" width="66.67" height="20" as="geometry" />
        </mxCell>
        <mxCell id="LEjaGU5CxLeT_bd0biD4-52" style="edgeStyle=orthogonalEdgeStyle;rounded=0;orthogonalLoop=1;jettySize=auto;html=1;exitX=0.5;exitY=0;exitDx=0;exitDy=0;strokeWidth=3;" edge="1" parent="1">
          <mxGeometry relative="1" as="geometry">
            <mxPoint x="-275.43" y="880" as="targetPoint" />
            <mxPoint x="-275.43" y="920" as="sourcePoint" />
          </mxGeometry>
        </mxCell>
        <mxCell id="LEjaGU5CxLeT_bd0biD4-54" style="edgeStyle=orthogonalEdgeStyle;rounded=0;orthogonalLoop=1;jettySize=auto;html=1;exitX=0.5;exitY=0;exitDx=0;exitDy=0;strokeWidth=3;" edge="1" parent="1">
          <mxGeometry relative="1" as="geometry">
            <mxPoint x="-173.07" y="880" as="targetPoint" />
            <mxPoint x="-173.07" y="920" as="sourcePoint" />
          </mxGeometry>
        </mxCell>
        <mxCell id="LEjaGU5CxLeT_bd0biD4-55" value="Word 1" style="text;html=1;strokeColor=none;fillColor=none;align=center;verticalAlign=middle;whiteSpace=wrap;rounded=0;strokeWidth=3;" vertex="1" parent="1">
          <mxGeometry x="-308.84" y="850" width="66.67" height="20" as="geometry" />
        </mxCell>
        <mxCell id="LEjaGU5CxLeT_bd0biD4-56" value="Word 1" style="text;html=1;strokeColor=none;fillColor=none;align=center;verticalAlign=middle;whiteSpace=wrap;rounded=0;strokeWidth=3;" vertex="1" parent="1">
          <mxGeometry x="-201.73999999999998" y="1320" width="66.67" height="20" as="geometry" />
        </mxCell>
        <mxCell id="LEjaGU5CxLeT_bd0biD4-57" value="" style="endArrow=classic;html=1;rounded=0;strokeWidth=3;" edge="1" parent="1">
          <mxGeometry width="50" height="50" relative="1" as="geometry">
            <mxPoint x="-168.9" y="1311" as="sourcePoint" />
            <mxPoint x="-168.9" y="1271" as="targetPoint" />
          </mxGeometry>
        </mxCell>
        <mxCell id="LEjaGU5CxLeT_bd0biD4-59" value="Word 2" style="text;html=1;strokeColor=none;fillColor=none;align=center;verticalAlign=middle;whiteSpace=wrap;rounded=0;strokeWidth=3;" vertex="1" parent="1">
          <mxGeometry x="-205.90999999999997" y="850" width="66.67" height="20" as="geometry" />
        </mxCell>
        <mxCell id="LEjaGU5CxLeT_bd0biD4-60" value="" style="endArrow=classic;html=1;rounded=0;strokeWidth=3;" edge="1" parent="1">
          <mxGeometry width="50" height="50" relative="1" as="geometry">
            <mxPoint x="16.930000000000007" y="1310" as="sourcePoint" />
            <mxPoint x="16.930000000000007" y="1270" as="targetPoint" />
          </mxGeometry>
        </mxCell>
        <mxCell id="LEjaGU5CxLeT_bd0biD4-61" value="Word n" style="text;html=1;strokeColor=none;fillColor=none;align=center;verticalAlign=middle;whiteSpace=wrap;rounded=0;strokeWidth=3;" vertex="1" parent="1">
          <mxGeometry x="-15.909999999999968" y="1320" width="66.67" height="20" as="geometry" />
        </mxCell>
      </root>
    </mxGraphModel>
  </diagram>
</mxfile>
